<svg width="189" height="89" viewBox="0 0 189 89" fill="none" xmlns="http://www.w3.org/2000/svg">
<path d="M61.4801 56.17C56.8501 56.17 53.0901 52.41 53.0901 47.78V13.43C53.0901 8.80004 56.8501 5.04004 61.4801 5.04004C66.1101 5.04004 69.8701 8.80004 69.8701 13.43V47.78C69.8701 52.41 66.1201 56.17 61.4801 56.17Z" fill="#B06A3F"/>
<path d="M27.96 56.2C12.58 56.2 0.530029 44.97 0.530029 30.64C0.530029 26.01 4.29003 22.25 8.92003 22.25C13.55 22.25 17.31 26.01 17.31 30.64C17.31 36.41 22.67 39.42 27.96 39.42C29.19 39.42 30.39 39.23 31.53 38.86C35.93 37.42 40.67 39.83 42.11 44.23C43.55 48.63 41.14 53.37 36.74 54.81C33.91 55.74 30.95 56.2 27.96 56.2Z" fill="#EDA756"/>
<path d="M85.7101 53.8799C81.0801 53.8799 77.3201 50.1199 77.3201 45.4899V37.8299C77.3201 33.1999 81.0801 29.4399 85.7101 29.4399C90.3401 29.4399 94.1001 33.1999 94.1001 37.8299V45.4899C94.1001 50.1199 90.3501 53.8799 85.7101 53.8799Z" fill="#EDA756"/>
<path d="M121.48 56.54H110.75C106.12 56.54 102.36 52.78 102.36 48.15C102.36 43.52 106.12 39.76 110.75 39.76H121.48C122.71 39.76 123.72 38.76 123.72 37.52C123.72 36.28 122.72 35.28 121.48 35.28H111.2C106.57 35.28 102.81 31.52 102.81 26.89C102.81 22.26 106.57 18.5 111.2 18.5H121.48C131.96 18.5 140.49 27.03 140.49 37.52C140.5 48.01 131.97 56.54 121.48 56.54Z" fill="#B06A3F"/>
<path d="M168.22 56.4C156.76 56.4 147.44 47.08 147.44 35.62C147.44 30.99 151.2 27.23 155.83 27.23C160.46 27.23 164.22 30.99 164.22 35.62C164.22 37.82 166.01 39.62 168.22 39.62C170.43 39.62 172.22 37.83 172.22 35.62C172.22 30.99 175.98 27.23 180.61 27.23C185.24 27.23 189 30.99 189 35.62C189 47.08 179.68 56.4 168.22 56.4Z" fill="#B06A3F"/>
<path d="M121.43 43.35C124.644 43.35 127.25 40.7443 127.25 37.53C127.25 34.3157 124.644 31.71 121.43 31.71C118.216 31.71 115.61 34.3157 115.61 37.53C115.61 40.7443 118.216 43.35 121.43 43.35Z" fill="#FFF0B1"/>
<path d="M110.19 56.21C105.56 56.21 101.8 52.45 101.8 47.82V13.47C101.8 8.83996 105.56 5.07996 110.19 5.07996C114.82 5.07996 118.58 8.83996 118.58 13.47V47.82C118.58 52.45 114.82 56.21 110.19 56.21Z" fill="#EDA756"/>
<path d="M180.61 44.02C175.98 44.02 172.22 40.26 172.22 35.63C172.22 33.43 170.43 31.63 168.22 31.63C166.01 31.63 164.22 33.42 164.22 35.63C164.22 40.26 160.46 44.02 155.83 44.02C151.2 44.02 147.44 40.26 147.44 35.63C147.44 24.17 156.76 14.86 168.22 14.86C179.68 14.86 189 24.17 189 35.63C189 40.26 185.24 44.02 180.61 44.02Z" fill="#EDA756"/>
<path d="M168.22 45.35C164.62 45.35 161.71 42.43 161.71 38.84V35C161.71 31.4 164.63 28.49 168.22 28.49C171.82 28.49 174.73 31.41 174.73 35V38.84C174.74 42.44 171.82 45.35 168.22 45.35Z" fill="#FFF0B1"/>
<path d="M176.37 32.6C175.27 29.77 172.74 27.67 169.67 27.15V24.33C169.67 23.53 169.02 22.88 168.22 22.88C167.42 22.88 166.77 23.53 166.77 24.33V27.15C163.7 27.66 161.17 29.77 160.07 32.6C159.48 34.12 160.65 35.77 162.29 35.77H174.15C175.79 35.77 176.97 34.12 176.37 32.6Z" fill="#B06A3F"/>
<path d="M62.89 73.16C63.34 73.16 63.71 73.05 63.98 72.83C64.19 72.66 64.45 72.34 64.45 71.8C64.45 71.25 64.2 70.94 63.98 70.76C63.7 70.54 63.34 70.43 62.89 70.43H55.43C55.92 69.28 56 68.88 56 68.65C56 68.35 55.89 67.37 54.53 67.37C54.07 67.37 53.44 67.57 53.07 68.55C52.65 69.68 52.15 70.77 51.6 71.79C51.06 72.8 50.47 73.7 49.85 74.45C49.65 74.69 49.51 74.91 49.41 75.12V72.82C51.06 69.32 51.06 68.87 51.06 68.65C51.06 67.79 50.48 67.28 49.52 67.28C49.14 67.28 48.8 67.43 48.54 67.72C48.32 67.96 48.14 68.29 48 68.72C47.05 71.64 45.87 74.19 44.51 76.29C43.76 77.4 43.66 77.84 43.66 78.12C43.66 79.06 44.15 79.62 44.98 79.62C45.37 79.62 45.75 79.34 46.24 78.7C46.34 78.56 46.45 78.41 46.56 78.24V86.51C46.56 87.51 47.08 88.11 47.95 88.11C48.86 88.11 49.4 87.51 49.4 86.51V76.43C49.61 76.9 50.02 77.18 50.61 77.18C51.14 77.18 51.69 76.79 52.34 75.96C52.85 75.31 53.44 74.36 54.09 73.14H55.08V86.47C55.08 87.49 55.62 88.1 56.51 88.1C57.4 88.1 57.94 87.49 57.94 86.47V82.91H62.54C63.52 82.91 64.1 82.4 64.1 81.54C64.1 80.68 63.52 80.17 62.54 80.17H57.94V78H61.8C62.76 78 63.34 77.49 63.34 76.63C63.34 75.77 62.76 75.26 61.8 75.26H57.94V73.11H62.89V73.16Z" fill="#B06A3F"/>
<path d="M180.59 84.81C179.45 84.42 178.42 83.8401 177.54 83.0701C178.26 82.0501 178.96 80.76 179.62 79.22C180.33 77.53 180.68 76.28 180.68 75.4C180.68 74.7 180.36 73.51 178.25 73.51H171.98C172 72.92 172.01 72.53 172.01 72.36C172.01 71.47 172.05 71.23 172.04 71.22C172.1 71.1 172.31 71.08 172.48 71.08H180.13C181.58 71.08 181.69 70.0501 181.69 69.7401C181.69 69.1801 181.45 68.87 181.25 68.7C180.98 68.48 180.62 68.3801 180.13 68.3801H171.63C170.06 68.3801 169.2 69.32 169.2 71.03V72.29C168.95 71.95 168.52 71.7701 167.94 71.7701H166.79V68.73C166.79 67.83 166.28 67.3 165.42 67.3C164.56 67.3 164.05 67.84 164.05 68.73V71.7701H162.6C161.68 71.7701 161.13 72.26 161.13 73.09C161.13 73.93 161.68 74.43 162.6 74.43H163.81C163.26 76.96 162.46 78.96 161.42 80.37C161.16 80.75 161.02 81.12 161.02 81.47C161.02 81.91 161.12 82.23 161.32 82.47C161.47 82.65 161.76 82.86 162.28 82.86C162.96 82.86 163.43 82.12 163.76 81.47C163.85 81.28 163.95 81.0701 164.06 80.8501V86.72C164.06 87.62 164.57 88.15 165.43 88.15C166.18 88.15 166.67 87.74 166.77 87.03C167 87.22 167.33 87.3201 167.73 87.3201C168.33 87.3201 168.92 86.88 169.58 85.95C169.48 86.12 169.42 86.3101 169.42 86.5201C169.42 86.9901 169.54 87.3401 169.79 87.5701C170.03 87.7901 170.36 87.91 170.79 87.91C171.04 87.91 171.35 87.83 171.79 87.66C172.18 87.5 172.64 87.26 173.15 86.95C174.14 86.34 174.98 85.74 175.67 85.15C176.35 85.75 176.95 86.21 177.48 86.54C179.36 87.7 180.07 87.83 180.44 87.83C181.31 87.83 181.83 87.26 181.83 86.31C181.83 85.89 181.67 85.15 180.59 84.81ZM177.07 78.22C176.82 78.91 176.56 79.52 176.3 80.06C176.15 80.36 175.99 80.65 175.82 80.93C175.28 80.1 174.89 79.1 174.64 77.94L174.44 77.04C174.34 76.63 174.11 76.33 173.78 76.17H177.71C177.71 76.25 177.67 76.61 177.07 78.22ZM169.1 78.5701C169.04 78.4401 168.96 78.31 168.88 78.17L168.63 77.78C168.29 77.18 168.01 76.7501 167.76 76.4601C167.44 76.0901 167.13 75.91 166.81 75.89V74.41H167.96C168.53 74.41 168.97 74.2201 169.21 73.8801C169.2 75.8801 169.16 77.4501 169.1 78.5701ZM166.81 79.65C166.82 79.68 166.84 79.7 166.85 79.72C167.03 80.06 167.19 80.3101 167.34 80.4901C167.8 81.0401 168.45 80.9401 168.84 80.7101C168.51 82.2801 167.86 83.66 166.91 84.84C166.88 84.88 166.85 84.9201 166.82 84.9601V79.65H166.81ZM169.69 85.8C169.77 85.68 169.85 85.55 169.94 85.42C170.65 84.26 171.15 82.93 171.44 81.45C171.56 80.81 171.65 80.02 171.73 79.11C171.79 78.32 171.85 77.35 171.89 76.17H172.54C172.42 76.22 172.32 76.3 172.23 76.39C172.07 76.56 171.87 76.8501 171.91 77.3501L172 78.2101C172.34 80.0701 173.01 81.74 173.97 83.16C173.23 83.8 172.24 84.39 171.01 84.92C170.56 85.12 170.01 85.4 169.69 85.8Z" fill="#B06A3F"/>
<path d="M102.05 73.7H98.12C99.49 72.58 100.63 71.53 101.5 70.55C101.66 70.37 101.77 70.19 101.83 70.01C101.88 69.85 101.91 69.65 101.91 69.43C101.91 69.07 101.76 68.76 101.48 68.53C100.92 68.07 99.98 68.05 99.15 69.01C98.75 69.48 98.32 69.94 97.87 70.4C97.73 70.02 97.36 69.61 96.47 69.61H93.48V68.68C93.48 67.8 92.96 67.27 92.09 67.27C91.22 67.27 90.7 67.8 90.7 68.68V69.61H87.25C86.31 69.61 85.75 70.1 85.75 70.93C85.75 71.23 85.86 72.23 87.25 72.23H90.7V73.7H84.31C82.92 73.7 82.81 74.7 82.81 75C82.81 75.83 83.37 76.32 84.31 76.32H90.25C87.96 77.7 85.81 78.77 83.84 79.52C82.91 79.88 82.77 80.52 82.77 80.87C82.77 81.31 82.88 81.65 83.11 81.89C83.34 82.13 83.67 82.26 84.1 82.26C84.28 82.26 84.56 82.21 85.38 81.85C85.75 81.69 86.17 81.48 86.64 81.24V84.93C86.64 85.82 86.85 86.46 87.27 86.88C87.69 87.3 88.34 87.51 89.24 87.51H98.82C99.69 87.51 100.35 87.3 100.78 86.88C101.21 86.46 101.42 85.8 101.42 84.93V79.88C101.42 78.98 101.21 78.33 100.79 77.91C100.37 77.5 99.72 77.3 98.82 77.3H93.17L94.7 76.32H102.05C103.46 76.32 103.57 75.32 103.57 75.02C103.56 74.19 103 73.7 102.05 73.7ZM94.09 73.7H93.48V72.23H95.91C95.33 72.72 94.72 73.22 94.09 73.7Z" fill="#B06A3F"/>
<path d="M97.38 81.5H90.88C90.46 81.5 90.12 81.16 90.12 80.74C90.12 80.32 90.46 79.98 90.88 79.98H97.38C97.8 79.98 98.14 80.32 98.14 80.74C98.15 81.16 97.81 81.5 97.38 81.5Z" fill="white"/>
<path d="M97.38 84.86H90.88C90.46 84.86 90.12 84.52 90.12 84.1C90.12 83.68 90.46 83.34 90.88 83.34H97.38C97.8 83.34 98.14 83.68 98.14 84.1C98.14 84.52 97.81 84.86 97.38 84.86Z" fill="white"/>
<path d="M20 69.54C19.14 69.54 18.63 70.12 18.63 71.08V71.67C18.53 71.54 18.4 71.41 18.24 71.28C17.63 70.79 16.34 69.66 14.07 68.46C14.07 68.41 14.08 68.35 14.08 68.3V68.1C14.05 67.8 13.85 67.47 13.58 67.28C12.81 66.73 11.94 67.01 11.36 67.75C9.82999 69.63 8.09999 71.31 6.43999 72.35C5.76999 72.77 5.48999 73.14 5.48999 73.65C5.48999 74.09 5.65 74.41 5.87 74.62C6.09 74.83 6.36999 74.95 6.78999 74.95C7.06999 74.95 7.34999 74.91 7.81999 74.63C8.09999 74.46 8.44999 74.22 8.87999 73.9L9.46999 73.42C9.66999 73.65 9.97 73.8 10.3 73.8H15.24C15.7 73.8 16.08 73.53 16.26 73.14L17.04 73.69C17.62 73.93 18.27 73.85 18.65 73.37V81.82C18.65 82.8 19.16 83.38 20.02 83.38C20.89 83.38 21.41 82.8 21.41 81.82V71.08C21.39 70.11 20.87 69.54 20 69.54ZM12.78 70.33C13.28 70.65 13.99 71.25 14.43 71.57H11.69C12 71.26 12.46 70.66 12.78 70.33Z" fill="#B06A3F"/>
<path d="M23.9301 67.58C23.6001 67.58 22.5401 67.7 22.5401 69.21V84.86C22.5401 85.12 22.5001 85.1199 22.3401 85.1199H20.8901C19.9101 85.1199 19.3301 85.6399 19.3301 86.5099C19.3301 87.4099 19.9101 87.94 20.8901 87.94H22.5601C23.4901 87.94 24.1901 87.72 24.6501 87.27C25.1101 86.82 25.3401 86.13 25.3401 85.21V69.21C25.3401 68.19 24.8101 67.58 23.9301 67.58Z" fill="#B06A3F"/>
<path d="M17.53 74.7399C17.23 74.4399 16.82 74.2499 16.3 74.1899L9.38999 74.1799C8.07999 74.3099 7.37 75.1099 7.37 76.4599V78.2399C7.37 81.2199 6.97999 83.2999 6.20999 84.3999C5.79999 84.9899 5.62 85.3899 5.62 85.7199C5.62 86.5999 6.11999 87.1299 6.95999 87.1299C7.34999 87.1299 7.70999 86.9399 8.03999 86.5599C8.29999 86.2599 8.54999 85.8399 8.81999 85.2699C8.86999 85.1699 8.90999 85.0699 8.95999 84.9699C9.53999 83.5199 9.89999 81.3499 9.89999 81.3499C9.90999 81.2699 9.89999 81.3199 9.89999 81.3499H10.65L16.09 81.3399C17.41 81.2299 18.12 80.4299 18.12 79.0499V76.4499C18.12 75.6999 17.92 75.1299 17.53 74.7399ZM15.32 79.4999H10.92C10.6 79.4999 10.35 79.2399 10.35 78.9299C10.35 78.6099 10.61 78.3599 10.92 78.3599H15.32C15.64 78.3599 15.89 78.6199 15.89 78.9299C15.89 79.2399 15.64 79.4999 15.32 79.4999ZM15.32 76.9899H10.92C10.6 76.9899 10.35 76.7299 10.35 76.4199C10.35 76.1099 10.61 75.8499 10.92 75.8499H15.32C15.64 75.8499 15.89 76.1099 15.89 76.4199C15.89 76.7299 15.64 76.9899 15.32 76.9899Z" fill="#B06A3F"/>
<path d="M14.98 81.96H12.3C10.7 81.96 9.41003 83.25 9.41003 84.85C9.41003 86.45 10.7 87.74 12.3 87.74H14.98C16.58 87.74 17.87 86.45 17.87 84.85C17.87 83.25 16.58 81.96 14.98 81.96ZM15.3 85.42H11.97C11.64 85.42 11.38 85.15 11.38 84.83C11.38 84.5 11.65 84.24 11.97 84.24H15.3C15.63 84.24 15.89 84.51 15.89 84.83C15.9 85.15 15.63 85.42 15.3 85.42Z" fill="#B06A3F"/>
<path d="M141.42 73.85H131.4L131.6 73.5H139.24C140.08 73.5 140.58 73.03 140.58 72.24C140.58 71.46 140.07 70.98 139.24 70.98H132.79L132.9 70.71C133.35 70.7 133.74 70.68 134.09 70.65C134.51 70.62 134.86 70.6 135.16 70.58C135.85 70.51 136.53 70.47 137.19 70.45C138.17 70.41 138.99 70.31 139.63 70.18C140.67 69.97 140.78 69.27 140.78 68.98C140.78 68.52 140.66 68.15 140.42 67.86C140.14 67.54 139.74 67.4 139.27 67.47L138.42 67.6C137.19 67.8 135.05 67.96 132.06 68.07C129.11 68.18 127.01 68.17 124.86 68.17C123.43 68.17 123.32 69.17 123.32 69.47C123.32 69.94 123.45 70.3 123.7 70.54C123.86 70.69 124.17 70.86 124.61 70.84L129.93 70.77L129.85 70.97H125.24C124.42 70.97 123.92 71.45 123.92 72.23C123.92 73.01 124.43 73.49 125.24 73.49H128.54L128.34 73.84H123.24C122.42 73.84 121.92 74.32 121.92 75.1C121.92 75.88 122.43 76.36 123.24 76.36H126.47C126.12 76.74 125.77 77.09 125.4 77.41C124.78 77.96 124.06 78.52 123.28 79.05C122.3 79.71 121.86 80.25 121.86 80.78C121.86 81.7 122.38 82.25 123.25 82.25C123.52 82.25 123.88 82.1 124.84 81.38C125.27 81.06 125.71 80.69 126.17 80.29V85.35C126.13 86.13 126.31 86.73 126.7 87.12C127.08 87.5 127.67 87.7 128.45 87.7H138.08C138.17 87.71 138.26 87.71 138.35 87.71C139.01 87.71 139.52 87.53 139.88 87.16C140.27 86.76 140.46 86.16 140.46 85.38V78.92C140.5 78.13 140.31 77.53 139.9 77.14C139.51 76.76 138.91 76.57 138.12 76.57H129.65C129.71 76.49 129.76 76.42 129.8 76.35H141.38C142.18 76.35 142.68 75.87 142.68 75.09C142.72 74.33 142.22 73.85 141.42 73.85ZM137.71 85.14C137.71 85.25 137.62 85.34 137.51 85.34H129.12C129.01 85.34 128.92 85.25 128.92 85.14V84.95C128.92 84.84 129.01 84.75 129.12 84.75H137.51C137.62 84.75 137.71 84.84 137.71 84.95V85.14V85.14ZM137.71 82.27C137.71 82.38 137.62 82.47 137.51 82.47H129.12C129.01 82.47 128.92 82.38 128.92 82.27V82.08C128.92 81.97 129.01 81.88 129.12 81.88H137.51C137.62 81.88 137.71 81.97 137.71 82.08V82.27V82.27ZM137.51 79.01C137.62 79.01 137.71 79.1 137.71 79.21V79.4C137.71 79.51 137.62 79.6 137.51 79.6H129.12C129.01 79.6 128.92 79.51 128.92 79.4V79.21C128.92 79.1 129.01 79.01 129.12 79.01H137.51Z" fill="#B06A3F"/>
<path d="M41.94 9.80999L41.95 9.78999C41.78 9.56999 41.59 9.36 41.4 9.16C41.39 9.15 41.3801 9.14999 41.3801 9.13999C41.1401 8.88999 40.8701 8.65999 40.6001 8.44999C40.5301 8.38999 40.4501 8.33 40.3801 8.27C37.7801 6.36 34.26 5.77999 34.26 5.77999L34.25 5.78999C32.2 5.31999 30.1 5.07999 27.97 5.07999C23.69 5.07999 19.6701 5.94999 16.1001 7.50999L13.4901 3.46999C10.9701 -0.430007 5.36004 -0.71001 2.46004 2.91999C0.120045 5.85999 0.600047 10.14 3.54005 12.48L6.37005 14.73C2.71005 19.07 0.550049 24.57 0.550049 30.64C0.550049 35.27 4.31005 39.03 8.94005 39.03C13.57 39.03 17.33 35.27 17.33 30.64C17.33 24.87 22.69 21.86 27.98 21.86C29.2 21.86 30.4 22.05 31.54 22.42L32.61 22.77C32.78 22.83 32.96 22.89 33.14 22.94L33.34 23.01C34.02 23.19 34.7201 23.29 35.4601 23.29C40.0601 23.29 43.94 19.69 43.94 15.1C43.91 13.14 43.06 11.23 41.94 9.80999Z" fill="#B06A3F"/>
<path d="M94.37 15.5C93.4 13.61 91.25 12.7 89.38 13.67C89.31 13.7 89.26 13.74 89.2 13.77C89.2 13.77 90.46 11.01 90.45 11.01C90.53 10.82 90.59 10.63 90.62 10.42C90.77 9.20003 89.9 8.09003 88.67 7.94003C87.45 7.79003 86.34 8.66003 86.19 9.89003C86.19 9.93003 86.19 9.96003 86.18 10L86.1 13.3C85.23 12.91 84.38 12.6 83.64 12.42C80.95 11.75 78.33 13.58 77.65 16.42C77.65 16.42 77.26 17.91 77.53 19.17C77.55 19.24 77.56 19.32 77.58 19.38C78.26 22.22 81.49 24.4 85.86 24.59C88.97 24.72 91.72 23.76 93.31 22.21C93.38 22.13 93.45 22.08 93.52 22C93.69 21.82 93.85 21.62 93.99 21.42C94.14 21.21 94.27 20.99 94.39 20.76C94.44 20.66 94.49 20.56 94.54 20.46C94.64 20.23 94.73 20 94.81 19.76C94.88 19.54 94.93 19.31 94.97 19.08C95.01 18.87 95.03 18.65 95.04 18.43C95.05 18.23 95.05 18.03 95.03 17.82C95.02 17.63 95 17.45 94.97 17.26C94.94 17.09 94.91 16.93 94.87 16.76C94.83 16.62 94.79 16.47 94.75 16.33C94.71 16.21 94.67 16.09 94.62 15.98C94.58 15.89 94.55 15.8 94.51 15.72C94.48 15.66 94.46 15.61 94.43 15.55C94.39 15.55 94.38 15.53 94.37 15.5Z" fill="#B06A3F"/>
<path d="M86.93 55.71L91.28 51.77H80.17L84.55 55.72C85.21 56.33 86.25 56.33 86.93 55.71Z" fill="#B06A3F"/>
</svg>
